<svg width="372" height="60" viewBox="0 0 372 60" fill="none" xmlns="http://www.w3.org/2000/svg">
<g clip-path="url(#clip0_3184_9912)">
<path d="M270.966 20.7473L270.539 20.0433L270.538 20.0067L253.81 19.9618L199.509 20.0067H199.452L189.406 33.1958L189.19 33.4757L189.847 33.8332L194.69 33.832L191.488 41.9559L189.024 37.803L187.876 36.5591L186.602 36.5616H176.094L185.085 20.9302L184.984 20.0101L184.972 20.0106L184.976 20.0042L160.934 20.1524L146.303 20.1623L141.29 23.4765L139.861 21.2483L138.694 19.9542L137.929 19.9512H114.948L124.313 34.2954L100.996 50.6271H101.04L101.025 50.6367L101.335 50.9418L125.416 50.9441L131.601 46.6108L133.581 50.5856L134.148 50.9113L259.624 51.0029L264.066 45.1164L270.996 27.7316L270.966 20.7473Z" fill="#373435"/>
<path d="M270.333 27.3636L270.405 25.4388L270.308 20.2468H253.594H199.569L189.758 33.1271H195.224L191.286 43.1185L187.539 36.8018H175.095L184.562 20.2468L160.958 20.3921L160.957 20.4027H146.374L140.929 24.0026L138.486 20.1914H115.395L124.643 34.357L124.545 34.4251L101.768 50.3793H125.127L131.58 45.8139L133.747 50.2744L258.766 50.4264L259.07 50.4293V50.4264H259.138L263.446 44.8319L270.333 27.3636Z" fill="#FEFEFE"/>
<path fill-rule="evenodd" clip-rule="evenodd" d="M200.944 23.1165H212.514L212.018 24.3881H199.994L200.944 23.1165ZM199.045 31.0609H209.383L208.567 33.1461H198.23L199.045 31.0609ZM198.921 25.7792H211.467L210.862 27.3228H197.751L198.921 25.7792ZM197.998 33.7238H208.336L207.408 36.0779H197.075L197.998 33.7238H197.998ZM195.512 30.2548L196.901 28.4404H210.415L209.706 30.2548H195.512ZM192.66 47.263L196.951 36.3858H207.289L202.998 47.263H192.661H192.66ZM227.29 31.061H237.626L236.802 33.1463H226.467L227.29 31.061H227.29ZM226.239 33.7238H236.575L235.647 36.0779H225.313L226.239 33.7238ZM216.414 23.1167H239.334L239.356 24.3883H215.347L216.414 23.1167H216.414ZM239.417 26.5134L239.102 27.3228H213.331L213.646 26.5134L214.243 25.7792H239.372L239.417 26.5134H239.417ZM212.892 28.4405H238.658L237.94 30.255H212.173L212.892 28.4405H212.892ZM211.857 31.061H222.195L221.375 33.1463H211.039L211.858 31.061H211.857ZM210.806 33.7238H221.143L220.22 36.0779H209.879L210.806 33.7238ZM229.59 47.263L232.792 43.3311L235.525 36.3856H225.189L223.926 39.5841H218.831L220.098 36.3856H209.758L207.023 43.3311L207.118 47.263H229.59ZM255.527 31.061H265.867L265.043 33.1463H254.707L255.528 31.061H255.527ZM254.476 33.7238H264.814L263.887 36.0779H253.552L254.476 33.7238ZM244.653 23.1167H267.574L267.595 24.3883H243.586L244.653 23.1167ZM267.655 26.5134L267.336 27.3228H241.568L241.89 26.5134L242.48 25.7792H267.609L267.655 26.5134ZM241.131 28.4405H266.899L266.184 30.255H240.412L241.131 28.4405ZM240.095 31.061H250.431L249.611 33.1463H239.275L240.094 31.061H240.095ZM239.045 33.7238H249.383L248.459 36.0779H238.119L239.045 33.7238ZM257.828 47.263H235.36L235.264 43.3311L237.998 36.3856H248.334L247.07 39.5841H252.166L253.432 36.3856H263.759L261.028 43.3311L257.828 47.263ZM162.945 23.1666L153.252 47.5052H190.625L185.978 39.6695H170.214L179.717 23.0615L162.946 23.1664L162.945 23.1666ZM120.626 23.0617H136.99L140.125 27.9514L147.187 23.2654H160.019L143.653 34.1932L151.634 47.4027H135.471L132.643 41.5767L124.268 47.5052H110.829L128.502 35.1248L120.626 23.0617H120.626Z" fill="#373435"/>
<path d="M141.412 7.51066C141.287 7.47642 140.158 7.18048 138.789 7.18048C137.409 7.18048 136.231 7.47553 135.287 8.05711L135.208 8.1059L134.795 7.33484L116.134 7.33022L115.176 12.0869H117.877L117.369 14.2001H116.34L115.445 17.8569H122.457L123.476 14.2001H122.152L122.653 12.0961L125.114 12.0865L125.54 17.8945L130.264 17.8516L132.328 14.4451L132.49 14.5166L131.771 17.3562L132.748 17.6264C133.182 17.7375 134.336 17.9964 135.663 17.9964C138.446 17.9964 140.352 16.8312 141.03 14.7162L141.042 14.6648C141.217 14.0243 141.292 13.0724 140.66 12.1623L140.559 12.0178H141.317L142.354 7.77821L141.412 7.5103V7.51066Z" fill="#FEFEFE"/>
<path fill-rule="evenodd" clip-rule="evenodd" d="M140.536 10.9922H139.004L139.03 10.3185C139.03 10.3185 137.793 9.91788 137.49 10.5701C137.191 11.2249 138.258 11.6241 138.585 11.7861C140.267 12.609 140.283 13.6428 140.08 14.3961C138.84 18.2643 132.981 16.635 132.981 16.635L133.609 14.1653H135.288L135.261 14.9305C135.674 15.1905 137.048 14.9587 137.104 14.3961C137.16 13.8298 136.715 13.7411 135.316 12.9239C133.909 12.1049 134.411 10.4303 134.657 10.0584C136.508 7.20034 141.146 8.50349 141.146 8.50349L140.536 10.9922H140.536ZM125.754 8.36351L125.34 10.2328L125.972 10.2372L126.462 16.8619L129.708 16.8319L134.843 8.36351H130.942L130.454 10.2073L131.142 10.2332L128.884 14.1655L128.863 10.2332H129.635L130.041 8.36368H125.754L125.754 8.36351ZM116.393 11.0624H118.132L118.459 10.258H119.334L118.149 15.2282H117.108L116.715 16.8325H121.704L122.15 15.2282H120.882L122.063 10.2372L122.736 10.233L122.747 11.0716L124.586 11.0624L125.147 8.36351L116.94 8.36244L116.393 11.0624Z" fill="#373435"/>
</g>
<defs>
<clipPath id="clip0_3184_9912">
<rect width="170" height="44" fill="white" transform="translate(101 7)"/>
</clipPath>
</defs>
</svg>
