<svg width="372" height="60" viewBox="0 0 372 60" fill="none" xmlns="http://www.w3.org/2000/svg">
<g clip-path="url(#clip0_3184_9543)">
<path d="M223.641 34.7734H225.755L222.597 40.5133L225.691 40.4927L225.233 41.9251L219.696 41.956L223.641 34.7734Z" fill="#231F20"/>
<path d="M227.925 41.9288H225.838L232.171 34.7565H234.505L232.986 41.9288H230.89L232.043 37.2297H232.025L227.925 41.9288Z" fill="#231F20"/>
<path d="M235.613 39.0324L235.448 34.7558H237.599L237.562 37.4351H237.599L240.546 34.7558L242.641 34.7352L237.681 39.1355L236.162 41.9281H234.029L235.613 39.0324Z" fill="#231F20"/>
<path d="M242.951 39.6706L245.02 39.5985C244.708 40.4229 244.891 40.6084 245.733 40.6084C246.575 40.6084 247.234 40.4435 247.491 39.7428C247.637 39.2997 247.344 39.1348 246.594 38.9184C245.322 38.5371 244.278 38.2382 244.672 36.9707C245.157 35.5383 246.429 34.6418 248.726 34.6418C251.298 34.6418 251.481 35.6723 250.941 36.8986L248.827 36.9707C249.184 36.2185 248.992 36.0742 248.241 36.0742C247.491 36.0742 246.987 36.1669 246.777 36.8058C246.649 37.2077 247.088 37.3211 247.884 37.5581C249.156 37.9394 250.053 38.3104 249.596 39.5573C249.028 41.1133 247.674 41.979 245.312 41.9996C242.658 41.9996 242.384 41.0103 242.951 39.6706Z" fill="#231F20"/>
<path d="M253.212 34.7364H255.839L254.695 39.5592H254.713L258.85 34.7055H261.486L257.532 41.8881H255.427L257.514 38.0959H257.496L254.32 41.8881H252.48L253.441 38.0959H253.423L251.327 41.9087H249.259L253.212 34.7364Z" fill="#231F20"/>
<path d="M260.496 41.8881H258.391L264.742 34.7055H267.085L265.538 41.8881H263.47L264.596 37.1787H264.577L260.496 41.8881Z" fill="#231F20"/>
<path d="M278.326 36.1682H276.175L276.989 34.6843H283.378L282.563 36.1682H280.431L277.301 41.8566H275.187L278.326 36.1682Z" fill="#231F20"/>
<path d="M219.422 34.7734H216.621L215.825 36.2058H218.122V36.2264L219.037 36.2058C219.833 36.2058 219.897 36.4841 219.605 37.0302L219.394 37.3806C219.101 37.9268 218.808 38.0607 218.012 38.0607H214.791L212.658 41.9457H214.772L216.154 39.4313H217.6C219.394 39.4313 220.63 38.9161 221.362 37.5764L221.719 36.9169C222.451 35.5257 221.966 34.7734 219.422 34.7734Z" fill="#231F20"/>
<path d="M98.0752 36.1894L214.535 36.1482L215.368 34.7055L98.8714 34.757L98.0752 36.1894Z" fill="#231F20"/>
<path d="M272.952 34.6843H270.316L269.52 36.1476H272.677C273.473 36.1476 273.556 36.4052 273.263 36.9514L273.071 37.2811C272.778 37.8479 272.467 37.9613 271.67 37.9613H268.513L266.362 41.8669H268.476L269.877 39.3215H270.627L270.755 41.8669H272.906L272.76 39.1154C274.077 38.8578 274.553 38.3116 274.974 37.5594L275.313 36.9205C276.063 35.5602 275.624 34.6843 272.952 34.6843Z" fill="#231F20"/>
<path d="M133.301 17.2262C133.301 17.2262 133.283 17.1747 133.173 17.1747H125.422C125.422 17.1747 125.357 17.1953 125.321 17.2675L121.477 24.2543C121.331 24.5119 121.138 24.6562 120.937 24.6974C120.708 24.7489 120.479 24.6768 120.251 24.481L112.636 17.2262C112.636 17.2262 112.618 17.1747 112.572 17.1747H105.635C105.571 17.1747 105.552 17.1953 105.552 17.2469L98.9081 29.1698C98.844 29.2831 98.8623 29.3347 98.8623 29.3553C98.8806 29.3759 98.9447 29.4068 99.0271 29.4068H106.587C106.587 29.4068 106.669 29.3862 106.687 29.3347L110.348 22.6982C110.495 22.4612 110.659 22.3169 110.87 22.2963H110.952C111.199 22.2963 111.492 22.4612 111.831 22.791C112.664 23.6154 117.99 28.9121 118.347 29.2625C118.448 29.3553 118.493 29.4068 118.594 29.4068L126.492 29.3862C126.559 29.3862 126.614 29.3484 126.657 29.2728L133.256 17.3705C133.32 17.2572 133.301 17.2262 133.301 17.2262ZM80 19.6067H81.4643L81.7389 18.875H82.471L81.4918 23.4196H80.5949L80.2837 24.9035H84.4662L84.8414 23.4196H83.7798L84.7865 18.8544H85.3265L85.3448 19.6067H86.8915L87.3491 17.1335H80.4576L80 19.6067ZM87.8524 17.1335L87.4955 18.8544H88.0355L88.429 24.9241L91.1472 24.9035L95.4578 17.1335H92.1997L91.7787 18.8235L92.3644 18.8441L90.4608 22.4406L90.4425 18.8441H91.0923L91.4492 17.1232H87.8524V17.1335ZM100.244 19.5552H98.9447L98.9905 18.9163C98.9905 18.9163 97.9471 18.5659 97.6909 19.1533C97.4438 19.7407 98.3132 20.122 98.6061 20.2868C100.006 21.0185 100.025 21.9769 99.8416 22.6673C98.8166 26.1916 93.9111 24.718 93.9111 24.718L94.4327 22.4612H95.8513L95.8056 23.1619C96.1625 23.399 97.3065 23.1825 97.3705 22.6673C97.3889 22.152 97.0319 22.0799 95.8422 21.3276C94.6707 20.5754 95.0917 19.0502 95.3022 18.6896C96.8672 16.0824 100.757 17.2778 100.757 17.2778L100.235 19.5552H100.244ZM182.942 21.9356L181.395 24.7077C181.02 25.3878 180.453 25.7382 179.702 25.7176H170.175C169.589 25.7176 169.406 24.9447 169.69 24.4501L171.301 21.5544C171.676 20.8948 172.179 20.5445 172.866 20.5445L182.393 20.596C183.107 20.596 183.207 21.3483 182.933 21.9356H182.942ZM184.406 29.3862C186.035 29.3862 187.308 28.5618 188.268 26.8717L191.902 20.3281C192.588 19.0811 192.094 17.1541 190.666 17.1541L168.189 17.1747C166.514 17.1747 165.224 18.0197 164.281 19.6479C164.281 19.6479 161.645 24.3985 160.712 26.1607C159.769 27.9538 160.565 29.3862 162.011 29.3862H184.406ZM219.468 17.1541C220.529 17.1541 222.076 17.2469 221.6 18.875C221.435 19.4212 220.95 20.4002 220.118 21.8841C219.742 22.6364 218.8 24.1924 218.26 24.6562C217.546 25.2951 216.356 25.6248 214.663 25.6455L212.466 25.6661L218.168 29.3553L208.394 29.3759C208.293 29.3759 208.101 29.2831 208.037 29.2625L202.875 25.7588H197.988C197.988 25.7588 196.231 28.84 196.066 29.1492C195.984 29.2934 195.901 29.3656 195.727 29.3656H189.294C189.019 29.3656 189.019 29.2213 189.147 29.0152C189.486 28.4278 195.123 18.2671 195.581 17.422C195.727 17.185 195.727 17.1644 196.002 17.1644H219.468V17.1541ZM210.691 22.9868H210.737C211.094 22.9868 211.405 22.7703 211.652 22.3478L212.238 21.3586C212.43 20.9567 212.238 20.5135 211.844 20.5135L200.56 20.5342L199.141 22.9764H210.691V22.9868ZM251.079 20.0292C252.461 17.2262 250.31 17.1541 248.031 17.1541L227.659 17.1747C225.883 17.2675 224.584 17.9991 223.714 19.3903C223.55 19.6479 223.376 19.9056 223.211 20.1941C222.79 20.8742 222.351 21.5853 221.911 22.3375C221.893 22.3891 221.847 22.4303 221.829 22.5024C221.454 23.1619 221.097 23.7699 220.804 24.2646C220.74 24.3573 220.703 24.481 220.639 24.5428C220.072 25.5733 219.724 26.1401 219.596 26.4905C218.992 27.9023 219.697 29.3656 221.307 29.3656H232.985C233.177 29.3656 233.342 29.4377 233.443 29.6026L235.383 32.5395L241.423 32.5189L236.326 24.9447C236.179 24.7592 235.932 24.6871 235.722 24.7798C235.054 25.0375 234.047 25.6455 233.928 25.6248C233.846 25.6042 229.187 25.6042 229.187 25.6042C228.666 25.5321 228.473 25.2229 228.647 24.7386L230.716 21.2349C230.716 21.2349 230.734 21.1834 230.761 21.1628C230.972 20.9051 231.246 20.7196 231.622 20.6475C231.704 20.6475 231.768 20.6269 231.85 20.6269H241.506C242.549 20.6269 242.595 21.0288 241.863 22.3478C241.149 23.6463 240.819 24.1821 240.188 25.1508C239.849 25.5733 239.081 25.6661 239.081 25.6661L241.671 29.7572C241.671 29.7572 244.453 29.4789 244.801 29.3553C245.533 29.1389 246.265 28.6545 247.18 27.3355C248.626 24.9859 250.777 20.6784 251.088 20.0395L251.079 20.0292ZM286.872 21.3689L278.828 21.3895L278.517 22.1211L284.703 22.1005C285.71 22.1005 287.065 22.1727 286.525 23.6566C286.25 24.4088 285.71 25.4187 285.317 26.1504C284.859 27.0469 283.669 27.1397 282.791 27.1397L272.696 27.1603L273.822 25.0478H281.848C282.452 24.9756 282.791 24.8107 283.056 24.2234L275.551 24.2749C274.755 24.2749 274.545 23.8009 274.883 23.1207L276.705 19.5964C276.915 19.1739 276.952 19.1224 277.418 19.1224C280.969 19.1224 284.52 19.1018 288.071 19.1018L286.882 21.3792L286.872 21.3689ZM270.737 27.1603L258.767 27.1809C259.352 26.1504 259.956 25.089 260.542 24.0276C261.228 22.7807 262.135 22.1211 263.443 22.1727L269.191 22.152C269.731 22.152 270.673 22.152 270.801 21.4513H262.089C262.482 20.699 262.903 19.9262 263.324 19.1739L273.767 19.1533C274.709 19.1739 274.664 19.3388 274.288 20.2559C273.117 22.8425 271.735 24.2543 268.88 24.2749L264.825 24.3264C264.093 24.347 263.178 24.4192 262.821 25.1714C265.832 25.1508 268.834 25.1199 271.826 25.0993L270.737 27.1706V27.1603ZM253.998 27.2015L257.238 21.1318C257.467 20.73 257.677 20.3074 257.906 19.8849C258.3 19.1327 258.364 19.1842 259.096 19.1533H261.146L256.845 27.2015H254.008H253.998ZM289.902 17.1541H257.659C256.781 17.1541 255.984 17.6487 255.508 18.4525L250.722 27.6962C250.328 28.3969 250.786 29.3243 251.536 29.3243L284.777 29.3037C285.902 29.3037 286.927 28.6442 287.467 27.5828L290.854 18.9678C291.275 18.1434 290.725 17.1541 289.893 17.1541H289.902Z" fill="#231F20"/>
<path d="M163.786 17.1841H135.186C135.058 17.1635 135.04 17.2357 134.975 17.349C134.893 17.4624 134.701 17.823 134.472 18.2456C134.426 18.2971 134.408 18.3177 134.371 18.3898C134.161 18.7711 132.843 21.1413 132.642 21.4916C132.541 21.708 132.596 21.8935 132.834 21.8935H141.885C143.185 21.8935 143.221 22.4088 142.617 23.5629C142.489 23.7794 141.995 24.7583 141.409 25.8404C140.366 27.7468 139.213 29.8387 139.066 30.0963C138.966 30.3127 139.021 30.5188 139.259 30.5188H142.27C142.334 30.5188 142.398 30.5188 142.462 30.4982C142.508 30.5188 142.544 30.5188 142.59 30.5188H146.727C146.919 30.5188 147.084 30.4055 147.184 30.2406C147.541 29.5811 150.195 24.7789 151.321 22.7798C151.76 22.079 152.236 21.8832 152.868 21.8832H161.306C161.452 21.8832 161.58 21.8317 161.663 21.6668L162.184 20.6981C162.184 20.6981 162.23 20.6466 162.249 20.626L163.978 17.5242C164.106 17.2872 164.042 17.1738 163.814 17.1738L163.786 17.1841Z" fill="#ED1B2F"/>
</g>
<defs>
<clipPath id="clip0_3184_9543">
<rect width="211" height="25" fill="white" transform="translate(80 17)"/>
</clipPath>
</defs>
</svg>
